<svg width="273" height="252" viewBox="0 0 273 252" fill="none" xmlns="http://www.w3.org/2000/svg">
<path d="M124.045 1C111.778 4.96511 49.788 205.389 12.3809 205.389C-25.0261 205.389 40.8556 265.568 51.4636 247.677C62.0716 229.786 115.112 55.2147 124.045 115.393C132.978 175.571 231.243 258.52 272 249.158C272 249.158 73.6829 41.8141 117.232 63.5C160.78 85.1859 124.045 1 124.045 1Z" fill="url(#paint0_linear_55_2)"/>
<path d="M272 249.158C272 249.158 156.986 25.3966 124.045 1C124.045 1 160.78 85.1859 117.232 63.5C73.6829 41.8141 272 249.158 272 249.158Z" fill="url(#paint1_linear_55_2)"/>
<path d="M124.045 1C111.778 4.96511 49.788 205.389 12.3809 205.389C-25.0261 205.389 40.8556 265.568 51.4636 247.677C62.0716 229.786 115.112 55.2147 124.045 115.393C132.978 175.571 231.243 258.52 272 249.158M124.045 1C156.986 25.3966 272 249.158 272 249.158M124.045 1C124.045 1 160.78 85.1859 117.232 63.5C73.6829 41.8141 272 249.158 272 249.158" stroke="#1F2667" stroke-opacity="0.14"/>
<defs>
<linearGradient id="paint0_linear_55_2" x1="131.303" y1="-7.13222" x2="283.277" y2="242.933" gradientUnits="userSpaceOnUse">
<stop stop-color="#2E399F"/>
<stop offset="0.18" stop-color="#1B204F"/>
<stop offset="0.705" stop-color="#424CAC"/>
</linearGradient>
<linearGradient id="paint1_linear_55_2" x1="136.5" y1="1" x2="122.698" y2="181.585" gradientUnits="userSpaceOnUse">
<stop offset="0.415" stop-color="#3D4AC8"/>
<stop offset="1" stop-color="#1F2667"/>
</linearGradient>
</defs>
</svg>
